<svg xmlns="http://www.w3.org/2000/svg" viewBox="0 0 5.8208332 15.9" preserveAspectRatio="none" fill="none">
  <path d="M9.898 5.95h-.42v1.64h.42V5.95ZM13.53 9.392h-.225c-.05 0-.1 0-.15-.024-.05-.023-.1-.047-.1-.118 0-.047 0-.094.05-.117.05-.024.1-.024.175-.024h.77v-.397h-.817c-.446 0-.595.256-.595.491 0 .516.47.492.866.516.075 0 .125.023.15.047.025.023.05.07.05.118a.175.175 0 0 1-.05.117c-.05.048-.1.048-.175.048h-.791v.35h.795c.42 0 .646-.165.646-.515 0-.165-.05-.28-.125-.35-.104-.095-.25-.142-.475-.142ZM15.405 9.429a.852.852 0 0 0-.264-.037h-.225c-.05 0-.1 0-.15-.024-.074-.023-.1-.047-.1-.118 0-.047.026-.094.05-.117.05-.024.1-.024.176-.024h.77v-.397h-.817a.762.762 0 0 0-.128.01c-.332.06-.468.26-.468.485 0 .515.471.491.867.515.075 0 .125.023.15.047.025.024.05.07.05.118a.175.175 0 0 1-.05.118c-.05.047-.1.047-.175.047H14.3v.35h.792c.25 0 .421-.07.52-.165.1-.094.15-.212.15-.35 0-.03-.003-.057-.006-.084-.054-.253-.279-.35-.35-.374ZM11.05 10.399h1.388v-.35h-.967v-.327h.942v-.33h-.942v-.303h.967v-.35H11.05v1.66ZM7.295 7.26H6.33v-.326h.941v-.327H6.33v-.306h.966v-.35H5.908v1.663h1.387V7.26ZM5.583 7.59V5.95h-.67l-.496 1.125-.007.024-.225-.482-.314-.643-.01-.024h-.657v1.57L2.51 5.95h-.621l-.735 1.64h.435l.175-.35h.842l.175.35h.841V6.304l.596 1.286h.364l.577-1.235.025-.054V7.59h.4Zm-3.67-.703.275-.657.27.657h-.545ZM14.314 5.974v1.148l-.72-1.148h-.621v1.569l-.696-1.569h-.62l-.57 1.286h-.175c-.125 0-.225-.023-.297-.094-.1-.094-.124-.212-.124-.397 0-.165.05-.303.124-.374.1-.07.175-.094.321-.094h.396v-.35h-.392c-.271 0-.496.047-.62.188-.175.189-.225.42-.225.657 0 .303.075.491.224.633.15.141.396.188.596.188h.47l.15-.373h.867l.15.35h.838v-.216l.004.004v-1.03l.791 1.242h.546V5.977h-.417v-.003Zm-2.629.913.296-.657.275.657h-.57ZM8.946 9.065c-.107-.246-.392-.303-.649-.303H6.981l-.52.539-.015.013-.093-.094-.438-.454H4.303v1.64H5.89l.546-.54.024.024v-.003l.475.515h.817v-.609h.495c.371 0 .72-.095.72-.563a.566.566 0 0 0-.02-.165Zm-3.113 1.007H4.816v-.35h.917v-.327h-.917v-.303h1.042l.446.492-.471.488Zm1.637.185-.646-.68.646-.657v1.337Zm.966-.747h-.545v-.421h.52c.15 0 .25.07.275.212 0 .138-.1.209-.25.209ZM10.726 9.766c-.025-.047-.1-.095-.225-.142a.466.466 0 0 0 .296-.444c0-.189-.1-.303-.224-.374-.125-.07-.3-.07-.496-.07h-.942v1.663h.421v-.61h.446c.15 0 .25 0 .296.071.075.07.075.236.075.327v.212h.42v-.327c.008-.141-.017-.236-.067-.306Zm-.375-.57c0 .071-.025.142-.075.166-.05.023-.124.023-.2.023h-.491v-.374h.495c.075 0 .15 0 .2.024.046.024.096.07.071.162ZM9.178 7.22v-.01a.438.438 0 0 0-.09-.276c-.006-.01-.013-.017-.024-.027H9.06a.32.32 0 0 0-.157-.088.463.463 0 0 0 .296-.431c-.003-.182-.075-.296-.196-.364-.125-.07-.274-.07-.496-.07h-.941v1.64h.42v-.586h.447c.117 0 .189 0 .224.023.025.01.05.024.072.047.074.095.074.236.074.327v.189h.371v-.327c.008-.02.004-.034.004-.047Zm-.45-.613c-.007.01-.01.017-.017.023l-.007.007c-.008.007-.015.01-.022.014-.05.023-.125.023-.2.023h-.495V6.3h.496c.074 0 .15 0 .2.024.031.014.063.04.074.08v.008c0 .006.004.013.004.02a.213.213 0 0 1-.032.175Z" fill="#306FC5"></path>
  <path d="M16.019 9.675V.889H.565v7.052l.01-.024.571-1.195.496-1.102h1.091l.125.28v-.28h1.263l.27.586.275-.586h3.995c.2 0 .346.048.47.142V5.62h1.117v.142c.2-.094.42-.142.695-.142h1.588l.15.28v-.28h1.166l.15.28v-.28h1.116v2.294h-1.167l-.224-.35v.353h-1.438l-.15-.374h-.345l-.15.374h-.745c-.296 0-.521-.07-.671-.141v.141H8.436v-.515c0-.07 0-.07-.05-.07h-.05v.609H4.888v-.28l-.125.28h-.72l-.126-.28v.28H2.484l-.15-.374h-.321l-.15.35-.01.024H.564v7.543h15.457V10.19a.783.783 0 0 1-.356.444c-.15.095-.371.118-.596.118h-1.066V10.611c-.125.094-.346.141-.571.141h-3.374v-.538c0-.071 0-.071-.075-.071h-.05V10.752H8.818v-.633c-.175.071-.396.071-.57.071h-.126V10.729H6.731l-.31-.34-.36.34H3.88V8.362h2.23l.32.35.347-.35h1.487c.15 0 .446.023.57.14v-.14h1.338c.125 0 .396.023.546.14v-.14h2.033v.14c.1-.093.32-.14.495-.14h1.142v.14s.189-.14.342-.14h1.195v1.124a.558.558 0 0 1 .093.189Z" fill="#306FC5"></path>
</svg>