<svg xmlns="http://www.w3.org/2000/svg" width="23" height="19" fill="none">
  <path d="M16.707 15.62c3.432 0 6.211-2.863 6.211-6.397 0-3.529-2.78-6.392-6.21-6.392H8.862c-3.431 0-6.21 2.863-6.21 6.398 0 3.535 2.779 6.398 6.21 6.398h7.844v-.007Z" fill="#2656A0"></path>
  <path d="M13.157 13.648c2.37-2.442 2.37-6.401 0-8.843a5.946 5.946 0 0 0-8.585 0c-2.37 2.442-2.37 6.401 0 8.843a5.946 5.946 0 0 0 8.585 0Z" fill="#fff"></path>
  <path d="M7.638 5.62c-1.45.52-2.487 1.94-2.487 3.61s1.043 3.095 2.493 3.61l-.006-7.22ZM12.569 9.23c0 1.67-1.042 3.095-2.493 3.61l.006-7.22c1.45.52 2.487 1.94 2.487 3.61Z" fill="#2656A0"></path>
</svg>