<svg width="55" height="60" viewBox="0 0 55 60" fill="none" xmlns="http://www.w3.org/2000/svg">
<path d="M14.5631 59.9211C15.4226 60.2327 16.3292 59.558 15.803 58.9996C12.9468 55.9683 10.242 50.8675 14.5513 44.2984C21.7375 33.3438 26.1103 27.6701 26.1103 27.6701C26.1103 27.6701 28.4362 34.2912 34.7411 40.1784C40.8091 45.8444 44.1305 52.9704 38.776 58.9067C38.2735 59.4639 39.1596 60.1212 40.0135 59.8233C46.6416 57.5113 54.0757 52.8738 54.9144 43.6451C55.2237 40.8251 54.7599 36.8771 52.4406 31.8951C49.4586 25.5807 45.7926 22.6344 43.6714 21.3691C43.037 20.9905 42.0502 21.326 42.1023 21.8998C42.7204 28.7129 38.9615 30.4418 36.8219 26.5455C35.9675 24.9892 35.4692 22.2974 35.4692 19.0194C35.4692 13.562 33.1472 7.94418 28.028 3.37908C26.6968 2.19193 25.1391 1.08261 23.352 0.136632C22.705 -0.205917 21.7671 0.138396 21.8264 0.695455C22.2195 4.39506 21.8633 14.9979 8.22171 27.665C-4.14721 39.4151 0.645711 48.4391 2.34644 50.8832C5.59808 55.5654 10.1336 58.3152 14.5631 59.9211Z" fill="#D51660"/>
</svg>
