<svg xmlns="http://www.w3.org/2000/svg" width="23" height="15" fill="none">
  <path d="M9.997 3.369c.07-.106.148-.21.218-.307-.07.105-.148.21-.218.307ZM11.968 2.36s-.01-.01 0 0c-.01-.01 0 0 0 0ZM11.401 1.859ZM10.224 3.062c.079-.097.157-.202.236-.29a3.437 3.437 0 0 0-.236.29ZM13.58 4.898ZM13.754 5.452c.035.123.061.254.088.377-.027-.123-.053-.246-.088-.377ZM13.196 4.029c.061.114.114.228.166.342a3.111 3.111 0 0 0-.166-.342ZM9.7 3.86c.062-.113.131-.219.192-.324-.06.105-.13.21-.191.325ZM11.4 2.192a6.578 6.578 0 0 0-2.318 5.033c0 1.95.846 3.777 2.319 5.033a6.578 6.578 0 0 0 2.319-5.033c0-1.95-.837-3.777-2.32-5.033ZM10.712 11.96l.261.264a3.699 3.699 0 0 1-.261-.263ZM10.224 11.38c.044.062.087.114.14.176-.053-.053-.096-.114-.14-.175ZM10.991 12.233a4.126 4.126 0 0 1 0 0ZM10.224 11.38a3.87 3.87 0 0 1-.218-.307c.06.106.14.21.218.307ZM9.108 5.267c.035-.123.078-.246.122-.369-.052.123-.087.246-.122.369ZM9.893 10.915l-.157-.263c.052.088.104.184.157.263ZM9.44 4.37c.052-.113.113-.227.165-.341-.052.105-.113.219-.166.342ZM8.96 5.838a4.77 4.77 0 0 1 .087-.377c-.026.122-.06.245-.087.377Z" fill="#EB610A"></path>
  <path d="m10.974 12.224-.262-.263a5.02 5.02 0 0 1-.348-.404 9.832 9.832 0 0 1-.358-.483l-.105-.158-.156-.264a4.317 4.317 0 0 1-.288-.57 6.037 6.037 0 0 1-.148-.352c-.044-.114-.087-.237-.131-.36A5.962 5.962 0 0 1 9.065 9a6.968 6.968 0 0 1-.088-3.161c.027-.132.053-.255.088-.378l.052-.185c.035-.123.078-.246.122-.369.061-.184.14-.36.218-.535.052-.115.113-.229.166-.343.026-.053.06-.114.087-.167.06-.114.13-.22.191-.325l.105-.158c.14-.21.296-.413.453-.597.079-.097.166-.193.253-.281.218-.229.445-.44.697-.633A6.701 6.701 0 0 0 7.19.375C3.433.375.391 3.441.391 7.226c0 3.786 3.042 6.852 6.8 6.852 1.595 0 3.06-.554 4.218-1.476a15.23 15.23 0 0 1-.418-.36l-.017-.018Z" fill="#E30D17"></path>
  <path d="M15.62.375c-1.595 0-3.06.553-4.22 1.476.193.158.384.325.559.5l.008.01c.088.087.175.175.262.271.044.044.087.097.122.141l.235.29c.035.053.079.096.114.15.07.105.148.21.209.315.035.053.07.106.096.159.06.105.13.22.183.333.06.114.113.229.165.343.027.061.053.114.079.176.052.114.096.237.14.36a6.096 6.096 0 0 1 .174.553c.035.123.06.255.087.378a7.018 7.018 0 0 1-.087 3.162c-.035.123-.07.246-.114.369-.017.061-.043.123-.06.184-.062.185-.14.36-.218.536-.027.062-.053.114-.079.176-.087.167-.174.342-.27.5-.035.053-.07.106-.096.159a6.896 6.896 0 0 1-1.508 1.677 6.752 6.752 0 0 0 4.219 1.476c3.757 0 6.8-3.066 6.8-6.851 0-3.786-3.052-6.843-6.8-6.843Z" fill="#F69F00"></path>
</svg>