<svg xmlns="http://www.w3.org/2000/svg" width="35" height="13" fill="none">
  <path d="M14.104 11.43V4.55a2.293 2.293 0 0 1 2.293-2.293l2.032.003a2.29 2.29 0 0 1 2.284 2.29v1.464a2.293 2.293 0 0 1-2.292 2.293h-2.872M21.278 2.256h.881c.52 0 .941.421.941.94v5.141" stroke="#939598" stroke-width=".7" stroke-miterlimit="10" stroke-linecap="round" stroke-linejoin="round"></path>
  <path d="m22.912 1.46-.4-.4c-.099-.1-.099-.26 0-.36l.4-.399c.1-.1.26-.1.36 0l.399.4c.1.099.1.26 0 .359l-.4.4c-.099.099-.26.099-.359 0Z" fill="#32BCAD"></path>
  <path d="M24.794 2.251h.874c.45 0 .88.179 1.198.497l2.045 2.044a.678.678 0 0 0 .959 0l2.037-2.037c.318-.318.75-.497 1.199-.497h.71M24.794 8.293h.874c.45 0 .88-.178 1.198-.496l2.045-2.045a.678.678 0 0 1 .959 0l2.037 2.037c.318.318.75.497 1.199.497h.71" stroke="#939598" stroke-width=".7" stroke-miterlimit="10" stroke-linecap="round" stroke-linejoin="round"></path>
  <path d="M8.889 9.599c-.439 0-.852-.17-1.162-.48L6.05 7.44a.319.319 0 0 0-.44 0L3.925 9.124c-.31.31-.723.481-1.161.481h-.33l2.123 2.124a1.699 1.699 0 0 0 2.403 0L9.09 9.6h-.202ZM2.764 3.667c.44 0 .852.17 1.162.48l1.683 1.684c.121.121.32.122.44 0l1.678-1.677c.31-.31.723-.481 1.162-.481h.202l-2.13-2.13a1.699 1.699 0 0 0-2.403 0L2.434 3.666h.33Z" fill="#32BCAD"></path>
  <path d="M10.854 5.435 9.567 4.147a.245.245 0 0 1-.091.019H8.89c-.303 0-.6.123-.813.337L6.4 6.18a.803.803 0 0 1-1.139 0L3.58 4.496a1.157 1.157 0 0 0-.813-.336h-.72a.244.244 0 0 1-.086-.018L.668 5.435a1.699 1.699 0 0 0 0 2.402L1.96 9.129a.245.245 0 0 1 .087-.017h.72c.302 0 .598-.123.812-.337l1.683-1.683a.824.824 0 0 1 1.139 0L8.078 8.77c.214.214.51.337.813.337h.585c.032 0 .063.007.091.018l1.287-1.287a1.699 1.699 0 0 0 0-2.402" fill="#32BCAD"></path>
  <path d="M15.85 10.846c-.096 0-.206.023-.316.048v.42a.728.728 0 0 0 .245.04c.21 0 .31-.07.31-.256 0-.174-.081-.252-.24-.252Zm-.387.779v-.83h.058l.006.037c.097-.023.232-.053.328-.053.078 0 .153.011.215.062.072.059.095.154.095.257 0 .108-.036.21-.134.267a.519.519 0 0 1-.244.054.88.88 0 0 1-.253-.038v.244h-.07ZM16.693 10.843c-.21 0-.304.067-.304.252 0 .179.092.26.304.26.209 0 .303-.066.303-.25 0-.18-.093-.262-.303-.262Zm.27.511a.456.456 0 0 1-.27.065.462.462 0 0 1-.272-.065c-.077-.054-.108-.143-.108-.254 0-.111.031-.201.108-.257a.462.462 0 0 1 .272-.064c.108 0 .2.015.27.064.078.056.108.146.108.255 0 .112-.03.202-.108.256ZM17.96 11.403l-.235-.503h-.004l-.231.503h-.064l-.25-.607h.078l.208.51h.005l.226-.51h.065l.232.51h.005l.203-.51h.076l-.25.607h-.064ZM18.725 10.842c-.194 0-.26.087-.273.212h.546c-.006-.138-.077-.212-.273-.212Zm-.002.577c-.117 0-.192-.017-.252-.067-.071-.062-.096-.15-.096-.252 0-.098.033-.201.113-.26a.406.406 0 0 1 .237-.061c.078 0 .168.008.243.059.088.058.105.162.105.28h-.623c.002.124.043.235.279.235.112 0 .216-.018.314-.035v.064a1.844 1.844 0 0 1-.32.037ZM19.276 11.402v-.607h.058l.006.037c.128-.033.188-.053.301-.053h.009v.067h-.017a.989.989 0 0 0-.286.048v.508h-.071ZM20.063 10.842c-.194 0-.26.087-.273.212h.546c-.006-.138-.077-.212-.273-.212Zm-.002.577c-.117 0-.192-.017-.253-.067-.07-.062-.095-.15-.095-.252 0-.098.033-.201.113-.26a.406.406 0 0 1 .237-.061c.078 0 .168.008.243.059.088.058.104.162.104.28h-.622c.002.124.043.235.279.235.111 0 .216-.018.313-.035v.064c-.1.018-.212.037-.32.037ZM21.186 10.885a.728.728 0 0 0-.245-.041c-.21 0-.31.071-.31.256 0 .175.082.252.24.252.095 0 .206-.023.315-.046v-.421Zm.013.518-.006-.036a1.648 1.648 0 0 1-.328.053.32.32 0 0 1-.215-.063c-.072-.059-.095-.154-.095-.257 0-.108.036-.21.135-.266a.508.508 0 0 1 .245-.055c.084 0 .166.015.251.039v-.278h.071v.863H21.2ZM22.297 10.847a1.49 1.49 0 0 0-.315.048v.418a.708.708 0 0 0 .245.042c.21 0 .31-.071.31-.256 0-.174-.082-.252-.24-.252Zm.181.519a.52.52 0 0 1-.244.054.866.866 0 0 1-.272-.046l-.003.029h-.048v-.863h.07v.29c.098-.022.229-.05.321-.05.079 0 .153.011.216.062.072.059.095.153.095.257 0 .108-.037.21-.135.267ZM22.708 11.636v-.066a1 1 0 0 0 .09.006c.088 0 .141-.025.19-.125l.023-.048-.317-.607h.082l.271.524h.005l.258-.524h.08l-.34.682c-.063.123-.13.164-.254.164a.733.733 0 0 1-.088-.006M24.367 11.057h-.235v.213h.236c.163 0 .224-.018.224-.107 0-.095-.084-.106-.225-.106Zm-.043-.345h-.192v.216h.193c.16 0 .224-.019.224-.109 0-.096-.08-.107-.225-.107Zm.365.634c-.086.055-.19.057-.382.057h-.36v-.823h.352c.164 0 .265.002.35.053.06.036.084.091.084.163 0 .087-.036.145-.13.183v.005c.106.024.174.078.174.195 0 .079-.029.13-.088.167M25.495 11.148a2.536 2.536 0 0 0-.219-.01c-.123 0-.167.025-.167.082 0 .053.036.081.131.081.08 0 .175-.018.255-.036v-.117Zm.036.254-.005-.036a1.467 1.467 0 0 1-.329.053.316.316 0 0 1-.184-.044c-.046-.033-.067-.086-.067-.147a.17.17 0 0 1 .102-.165.559.559 0 0 1 .227-.032c.064 0 .15.003.22.008v-.01c0-.095-.062-.127-.233-.127-.066 0-.147.004-.224.011v-.123c.086-.007.182-.011.261-.011.106 0 .215.008.283.056.07.05.083.118.083.208v.36h-.134ZM26.458 11.402v-.335c0-.11-.057-.15-.158-.15-.074 0-.168.019-.247.038v.447h-.17v-.607h.139l.006.039c.106-.028.226-.055.324-.055.075 0 .15.01.208.062.048.043.066.103.066.19v.371h-.168ZM27.106 11.42c-.078 0-.164-.012-.226-.065-.075-.06-.096-.155-.096-.257 0-.096.03-.2.123-.26a.48.48 0 0 1 .267-.06c.07 0 .139.005.214.012v.13a2.175 2.175 0 0 0-.193-.01c-.161 0-.237.05-.237.19 0 .13.056.187.189.187.077 0 .167-.014.255-.031v.125c-.096.019-.199.038-.296.038M27.9 10.906c-.16 0-.231.05-.231.189 0 .138.07.197.232.197.16 0 .23-.05.23-.188s-.069-.198-.23-.198Zm.292.45c-.075.05-.172.063-.291.063-.122 0-.219-.014-.292-.064-.084-.055-.114-.146-.114-.255 0-.11.03-.202.114-.258.073-.049.17-.063.292-.063.12 0 .216.014.29.063.085.056.114.148.114.256 0 .11-.03.202-.113.257ZM29.284 11.42a.457.457 0 0 1-.296-.086c-.098-.082-.128-.208-.128-.344 0-.121.038-.265.167-.35a.63.63 0 0 1 .348-.078c.092 0 .186.007.288.015v.148a3.73 3.73 0 0 0-.28-.014c-.235 0-.334.09-.334.28 0 .193.092.28.265.28.113 0 .24-.023.367-.05v.147c-.128.025-.261.051-.397.051M30.18 10.887c-.142 0-.196.05-.206.143h.408c-.005-.099-.062-.143-.203-.143Zm-.026.532c-.1 0-.19-.012-.257-.067-.072-.06-.098-.15-.098-.254 0-.092.03-.196.115-.256a.451.451 0 0 1 .265-.063c.087 0 .189.01.263.06.098.07.106.175.107.3h-.577c.004.093.053.153.224.153.106 0 .223-.016.323-.031v.119c-.116.019-.244.04-.365.04ZM31.303 11.402v-.335c0-.11-.056-.15-.157-.15-.075 0-.168.019-.248.038v.447h-.169v-.607h.138l.006.039c.107-.028.226-.055.325-.055.074 0 .15.01.208.062.048.043.066.103.066.19v.371h-.169ZM31.954 11.42c-.081 0-.156-.024-.197-.087a.315.315 0 0 1-.044-.184v-.227h-.123v-.127h.123l.018-.183h.15v.184h.24v.126h-.24v.194a.29.29 0 0 0 .017.116c.018.04.058.056.11.056a.77.77 0 0 0 .122-.012v.122a.954.954 0 0 1-.176.021M32.284 11.402v-.607h.138l.006.039c.112-.031.195-.055.3-.055h.022v.145l-.059-.001a.95.95 0 0 0-.238.031v.448h-.17ZM33.366 11.148a2.534 2.534 0 0 0-.218-.01c-.124 0-.168.025-.168.082 0 .053.036.081.131.081.08 0 .175-.018.255-.036v-.117Zm.036.254-.005-.036a1.468 1.468 0 0 1-.329.053.316.316 0 0 1-.184-.044c-.045-.033-.067-.086-.067-.147a.17.17 0 0 1 .102-.165.558.558 0 0 1 .227-.032c.064 0 .15.003.22.008v-.01c0-.095-.062-.127-.233-.127-.066 0-.147.004-.224.011v-.123c.086-.007.182-.011.261-.011.106 0 .215.008.283.056.07.05.083.118.083.208v.36h-.134ZM33.754 10.54h.17v.863h-.17v-.863Z" fill="#939598"></path>
</svg>