<svg xmlns="http://www.w3.org/2000/svg" width="26" height="10" fill="none">
  <path d="M15.917.884c-2.172 0-3.698 1.142-3.712 2.775-.014 1.21 1.091 1.885 1.923 2.287.857.411 1.144.675 1.14 1.043-.008.564-.685.82-1.315.82-.878 0-1.346-.126-2.065-.439l-.286-.134-.307 1.883c.514.234 1.462.437 2.448.447 2.306 0 3.806-1.129 3.824-2.872.009-.96-.578-1.686-1.846-2.286-.766-.39-1.24-.648-1.232-1.043 0-.35.397-.724 1.258-.724a3.875 3.875 0 0 1 1.644.324l.196.096.298-1.823a5.48 5.48 0 0 0-1.968-.354Zm-6.82.146L7.723 9.443h2.195l1.375-8.412H9.097Zm-3.216.009L3.73 6.77l-.229-1.164C2.967 4.178 1.808 2.68.458 2.073l1.966 7.361 2.325-.001 3.457-8.394H5.881Zm15.94 0c-.526 0-.92.148-1.152.698l-3.26 7.708h2.306s.378-1.038.463-1.265l2.811.005c.068.293.268 1.26.268 1.26h2.04l-1.779-8.406h-1.697Zm.155 2.268.147.725.51 2.427H20.81c.182-.482.875-2.35.875-2.35-.014.022.18-.487.291-.802Z" fill="#0023A0"></path>
</svg>