<svg xmlns="http://www.w3.org/2000/svg" width="24" height="12" fill="none">
  <g clip-path="url(#a)" fill="#000">
    <path d="M1.322 9.406c-.1-.16-.232-.415-.314-.604A4.43 4.43 0 0 1 .91 5.447c.443-1.205 1.29-2.13 2.387-2.6 1.376-.59 2.898-.476 4.218.306.838.48 1.432 1.221 1.883 2.27.057.135.107.278.158.4L1.322 9.407Zm2.748-4.78c-.979.42-1.482 1.336-1.377 2.409l4.14-1.781c-.71-.835-1.638-1.112-2.763-.628Zm3.281 3.872-.002.001-.086-.058c-.248.4-.633.725-1.119.936-.928.404-1.785.3-2.4-.24l-.057.086s0-.002-.002-.002l-1.05 1.57c.261.181.54.334.833.457 1.16.481 2.348.458 3.518-.05.847-.366 1.512-.924 1.965-1.632l-1.6-1.068ZM12.433.536v8.726l1.36.55-.772 1.798-1.5-.624a1.696 1.696 0 0 1-.738-.62c-.166-.255-.29-.609-.29-1.08V.535h1.94ZM15.952 7.039c0-.743.33-1.41.85-1.863l-1.395-1.552a4.538 4.538 0 0 0-1.54 3.41 4.54 4.54 0 0 0 1.536 3.416l1.393-1.553a2.462 2.462 0 0 1-.844-1.858ZM18.429 9.516a2.49 2.49 0 0 1-.785-.129l-.666 1.976a4.568 4.568 0 0 0 5.926-3.403l-2.048-.418a2.478 2.478 0 0 1-2.427 1.974ZM18.434 2.483a4.61 4.61 0 0 0-1.447.232l.66 1.977a2.476 2.476 0 0 1 3.21 1.857l2.048-.413a4.565 4.565 0 0 0-4.47-3.653Z"></path>
  </g>
  <defs>
    <clipPath id="a">
      <path fill="#fff" transform="translate(.47 .458)" d="M0 0h22.909v11.536H0z"></path>
    </clipPath>
  </defs>
</svg>