<svg xmlns="http://www.w3.org/2000/svg" width="27" height="12" fill="none">
  <g clip-path="url(#a)">
    <path fill-rule="evenodd" clip-rule="evenodd" d="M.918 11.995h22.116c.37-.016.725-.161 1.01-.412.284-.25.482-.593.561-.974L26.471.46H4.362c-.37.015-.726.16-1.01.41-.285.251-.482.594-.562.975L.918 11.994Z" fill="#C1272D"></path>
    <path d="M2.82 7.936c.148-.563.288-1.193.422-1.89a38.89 38.89 0 0 0 .356-2.221l.197.023h.221c.048 0 .11-.012.189-.023-.086.288-.173.66-.26 1.114l-.014.065-.113.58.343.01c.327.008.542.013.647.013.215 0 .564-.007 1.048-.02h.099l.13-.662a8.42 8.42 0 0 0 .153-1.093c.075.013.136.02.181.024.045.005.088 0 .126 0h.103l.2-.024c-.199.792-.366 1.542-.5 2.25a20.701 20.701 0 0 0-.275 1.854l-.197-.026H5.66c-.049 0-.113.011-.196.024a34.362 34.362 0 0 0 .29-1.245l.15-.788H3.764l-.132.668c-.036.2-.07.412-.106.64-.036.226-.067.472-.102.733l-.176-.022a1.129 1.129 0 0 0-.12 0h-.119c-.046 0-.107.01-.188.023v-.007Zm4.556-3.937a.293.293 0 0 1 .077-.212.266.266 0 0 1 .203-.082.256.256 0 0 1 .2.077.3.3 0 0 1 .07.217.301.301 0 0 1-.079.211.265.265 0 0 1-.393.002.294.294 0 0 1-.078-.213Zm-.647 3.937c.154-.623.273-1.184.358-1.684.073-.395.119-.795.138-1.198.055.008.106.013.15.018.043.004.092 0 .137 0h.15c.055 0 .102-.01.15-.018-.148.57-.264 1.1-.348 1.59-.076.427-.126.858-.15 1.292-.083-.013-.15-.02-.19-.024-.04-.005-.08 0-.11 0h-.1c-.043 0-.104.011-.187.024h.002Zm2.476-.271a.797.797 0 0 0 .405-.128.852.852 0 0 0 .292-.321c.197-.333.296-.72.283-1.112a.994.994 0 0 0-.158-.607.545.545 0 0 0-.199-.167.516.516 0 0 0-.25-.052.824.824 0 0 0-.42.127.88.88 0 0 0-.304.328c-.203.331-.304.72-.29 1.113a.98.98 0 0 0 .16.613c.06.07.135.126.218.162a.56.56 0 0 0 .263.044ZM7.497 9.578c.17-.63.33-1.33.478-2.097.147-.769.28-1.578.4-2.428l.133.012h.215l.15-.012-.103.42c.124-.154.277-.28.449-.372.16-.082.334-.124.512-.122a.875.875 0 0 1 .398.075c.125.055.238.14.328.247.189.248.284.56.268.876.016.475-.136.94-.425 1.305-.13.166-.293.3-.478.39-.185.09-.387.134-.591.13a.761.761 0 0 1-.484-.173.891.891 0 0 1-.3-.452l-.122.672c0 .038-.018.096-.033.173-.1.545-.178.996-.233 1.354l-.15-.027a.652.652 0 0 0-.228 0c-.05 0-.106.015-.166.027l-.018.002Zm3.923-3.365H12.77c0-.064.01-.12.014-.157.003-.038 0-.084 0-.118a.89.89 0 0 0-.14-.531.465.465 0 0 0-.17-.146.44.44 0 0 0-.216-.046.65.65 0 0 0-.288.073.685.685 0 0 0-.231.196 1.641 1.641 0 0 0-.322.735l.003-.006Zm-.053.254c0 .064-.012.129-.016.192-.005.063 0 .126 0 .185a.978.978 0 0 0 .194.65.71.71 0 0 0 .255.18c.096.039.2.056.302.049a.932.932 0 0 0 .438-.11c.163-.092.312-.21.44-.351l.069.06a2.111 2.111 0 0 0-.136.389c-.14.097-.291.175-.45.232-.15.052-.307.076-.465.073-.16.008-.321-.019-.471-.079a1.165 1.165 0 0 1-.402-.27 1.296 1.296 0 0 1-.252-.43 1.34 1.34 0 0 1-.073-.5c-.015-.46.135-.909.42-1.26.128-.162.29-.291.474-.379.183-.088.382-.131.584-.127a.896.896 0 0 1 .4.072c.126.054.24.137.333.243.188.242.283.55.265.863v.113c0 .057-.009.124-.013.205h-.127a56.578 56.578 0 0 0-.885-.013h-.357l-.527.008v.005Zm1.91 1.467c.137-.554.246-1.08.329-1.574.075-.432.128-.868.16-1.306.05.008.097.013.137.018.041.004.078 0 .108 0h.126c.043 0 .088-.01.136-.018a3.4 3.4 0 0 0-.118.573c.105-.181.24-.341.398-.472a.674.674 0 0 1 .484-.165c.026.004.052.01.078.017a2.137 2.137 0 0 0-.08.502l-.15-.031a.663.663 0 0 0-.11-.01c-.257 0-.453.17-.59.512-.137.341-.257.993-.36 1.956l-.164-.02a1.117 1.117 0 0 0-.12-.009h-.084l-.18.024v.003Zm3.705-.157a1.58 1.58 0 0 1-.846.24c-.16.008-.32-.02-.468-.08a1.161 1.161 0 0 1-.399-.27 1.271 1.271 0 0 1-.255-.428 1.318 1.318 0 0 1-.076-.498 1.832 1.832 0 0 1 .439-1.244c.137-.164.307-.293.497-.38.19-.088.396-.13.603-.126a2.04 2.04 0 0 1 .514.06c.149.038.291.1.423.181a2 2 0 0 0-.164.5h-.084a.89.89 0 0 0-.265-.379.601.601 0 0 0-.385-.133.866.866 0 0 0-.43.125.922.922 0 0 0-.318.326 1.93 1.93 0 0 0-.3 1.103c-.016.25.054.5.196.702.07.083.156.148.253.19a.66.66 0 0 0 .307.055c.16.002.317-.035.461-.107a.93.93 0 0 0 .354-.3l.079.067a2.211 2.211 0 0 0-.135.39l-.001.006Zm1.727-.233a1.38 1.38 0 0 1-.392.344.888.888 0 0 1-.432.11.678.678 0 0 1-.514-.188.68.68 0 0 1-.189-.512.822.822 0 0 1 .056-.35.787.787 0 0 1 .197-.29c.17-.152.47-.272.899-.36l.47-.098a.218.218 0 0 0 .098-.05.233.233 0 0 0 .063-.094.934.934 0 0 0 .053-.355.493.493 0 0 0-.133-.362.478.478 0 0 0-.35-.129.822.822 0 0 0-.45.123.821.821 0 0 0-.3.348l-.098-.027a1.483 1.483 0 0 0 .043-.327V5.224c.13-.086.27-.153.417-.2.146-.042.297-.064.449-.063a.949.949 0 0 1 .636.19.695.695 0 0 1 .222.545 2.17 2.17 0 0 1-.018.254 4.082 4.082 0 0 1-.051.324l-.19 1.02a1.515 1.515 0 0 0-.021.128c-.005.041 0 .077 0 .11a.188.188 0 0 0 .043.131.164.164 0 0 0 .123.047.312.312 0 0 0 .07-.009c.037-.009.074-.019.11-.031l.071.157c-.08.049-.164.088-.251.118a.781.781 0 0 1-.237.038.35.35 0 0 1-.283-.117.524.524 0 0 1-.109-.332l-.002.01Zm.176-1.136-.46.115c-.212.04-.412.13-.584.268a.585.585 0 0 0-.183.44.466.466 0 0 0 .111.324.382.382 0 0 0 .292.122.689.689 0 0 0 .45-.182.703.703 0 0 0 .254-.42l.118-.668.002.001Zm.778 1.528c.136-.555.245-1.08.328-1.575.075-.432.128-.867.16-1.305.051.008.098.012.138.017.04.005.078 0 .108 0h.126c.043 0 .088-.01.136-.017a3.439 3.439 0 0 0-.118.573c.104-.181.24-.341.398-.472a.674.674 0 0 1 .483-.166c.027.004.053.01.078.018a2.137 2.137 0 0 0-.08.502l-.149-.032a.663.663 0 0 0-.11-.01c-.257 0-.454.171-.59.513-.137.34-.255.989-.354 1.944l-.163-.02a1.115 1.115 0 0 0-.12-.008h-.084l-.18.023-.007.015Zm3.63-.42a1.611 1.611 0 0 1-.463.37c-.162.08-.34.12-.518.117a.832.832 0 0 1-.386-.08.875.875 0 0 1-.313-.25 1.363 1.363 0 0 1-.265-.88c-.015-.47.134-.93.419-1.293.125-.165.285-.298.466-.388.182-.09.381-.135.582-.132a.805.805 0 0 1 .507.167.914.914 0 0 1 .313.46l.129-.666c.057-.298.106-.57.15-.816.043-.245.078-.472.11-.7.068.014.12.023.16.028a.76.76 0 0 0 .094 0c.043 0 .087-.004.13-.01.05 0 .106-.014.166-.026a36.308 36.308 0 0 0-.876 4.512l-.133-.014h-.222l-.15.014.104-.42-.005.006Zm-.427-2.193a.804.804 0 0 0-.413.125.859.859 0 0 0-.298.324 2.067 2.067 0 0 0-.283 1.123.982.982 0 0 0 .15.598.517.517 0 0 0 .457.208.826.826 0 0 0 .422-.122.882.882 0 0 0 .31-.327c.202-.336.302-.728.288-1.126a.93.93 0 0 0-.163-.592.582.582 0 0 0-.213-.159.555.555 0 0 0-.257-.045v-.007Z" fill="#fff"></path>
  </g>
  <defs>
    <clipPath id="a">
      <path fill="#fff" transform="translate(.918 .458)" d="M0 0h25.553v11.536H0z"></path>
    </clipPath>
  </defs>
</svg>